<svg width="72" height="72" viewBox="0 0 72 72" fill="none" xmlns="http://www.w3.org/2000/svg">
<rect width="72" height="72" rx="8" fill="#FBAF7E"/>
<path fill-rule="evenodd" clip-rule="evenodd" d="M72 49V64C72 68.4183 68.4183 72 64 72H8C3.58172 72 0 68.4183 0 64V49H72Z" fill="#FCBF88"/>
<g filter="url(#filter0_d_172_341)">
<rect x="15" y="23" width="42" height="34" fill="#F5D0BD"/>
<rect x="11" y="15" width="50" height="8" fill="#70403C"/>
<rect x="40.5" y="33.5" width="11" height="11" fill="#FF8A00" stroke="#8C7775"/>
<rect x="20.5" y="33.5" width="13" height="23" fill="#FF8A00" stroke="#8C7775"/>
<rect x="41" y="34" width="10" height="6" fill="#48535F"/>
<rect x="21" y="34" width="12" height="23" fill="#48535F"/>
<rect x="29" y="44" width="3" height="1" fill="#8C7775"/>
<rect x="17" y="26" width="7" height="3" fill="#DAA98E"/>
<rect x="37" y="47" width="7" height="3" fill="#DAA98E"/>
<rect x="46" y="27" width="7" height="3" fill="#DAA98E"/>
</g>
<defs>
<filter id="filter0_d_172_341" x="11" y="15" width="51" height="43" filterUnits="userSpaceOnUse" color-interpolation-filters="sRGB">
<feFlood flood-opacity="0" result="BackgroundImageFix"/>
<feColorMatrix in="SourceAlpha" type="matrix" values="0 0 0 0 0 0 0 0 0 0 0 0 0 0 0 0 0 0 127 0" result="hardAlpha"/>
<feOffset dx="1" dy="1"/>
<feComposite in2="hardAlpha" operator="out"/>
<feColorMatrix type="matrix" values="0 0 0 0 0 0 0 0 0 0 0 0 0 0 0 0 0 0 0.25 0"/>
<feBlend mode="normal" in2="BackgroundImageFix" result="effect1_dropShadow_172_341"/>
<feBlend mode="normal" in="SourceGraphic" in2="effect1_dropShadow_172_341" result="shape"/>
</filter>
</defs>
</svg>
