<svg width="176" height="77" viewBox="0 0 176 77" fill="none" xmlns="http://www.w3.org/2000/svg">
<rect y="5" width="72" height="72" rx="8" fill="#FF8863"/>
<path fill-rule="evenodd" clip-rule="evenodd" d="M72 54V69C72 73.4183 68.4183 77 64 77H8C3.58172 77 0 73.4183 0 69V54H72Z" fill="#FEA573"/>
<g filter="url(#filter0_d_172_381)">
<rect x="15" y="28" width="42" height="34" fill="#F5D0BD"/>
<rect x="11" y="20" width="50" height="8" fill="#70403C"/>
<rect x="40.5" y="38.5" width="11" height="11" fill="#FF8A00" stroke="#8C7775"/>
<rect x="20.5" y="38.5" width="13" height="23" fill="#FF8A00" stroke="#8C7775"/>
<rect x="41" y="39" width="10" height="6" fill="#48535F"/>
<rect x="21" y="39" width="12" height="23" fill="#48535F"/>
<rect x="29" y="49" width="3" height="1" fill="#8C7775"/>
<rect x="17" y="31" width="7" height="3" fill="#DAA98E"/>
<rect x="37" y="52" width="7" height="3" fill="#DAA98E"/>
<rect x="46" y="32" width="7" height="3" fill="#DAA98E"/>
</g>
<path d="M97.92 12.24C98.24 12.624 98.464 12.9333 98.592 13.168C98.72 13.4027 98.784 13.6267 98.784 13.84C98.784 14.096 98.6133 14.3947 98.272 14.736C97.952 15.0773 97.632 15.248 97.312 15.248C96.8853 15.248 96.544 15.184 96.288 15.056C96.032 14.928 95.8187 14.7253 95.648 14.448C95.3067 13.936 94.8907 13.4987 94.4 13.136C93.9093 12.752 93.1413 12.56 92.096 12.56C91.2 12.56 90.176 12.7627 89.024 13.168C87.8933 13.5733 87.0827 14.0747 86.592 14.672C86.1653 15.2053 85.792 16.016 85.472 17.104C85.1733 18.192 85.024 19.248 85.024 20.272C85.024 21.5093 85.2907 22.6507 85.824 23.696C86.3787 24.72 87.168 25.5413 88.192 26.16C89.2373 26.7787 90.4853 27.088 91.936 27.088C92.7253 27.088 93.536 26.9387 94.368 26.64C95.2213 26.32 95.9573 25.808 96.576 25.104H96.544C96.928 24.6987 97.408 24.496 97.984 24.496C98.3253 24.496 98.6453 24.6453 98.944 24.944C99.264 25.2427 99.424 25.5413 99.424 25.84C99.424 26.16 99.3707 26.448 99.264 26.704C99.1787 26.9387 99.008 27.2053 98.752 27.504C97.8773 28.4853 96.8427 29.1573 95.648 29.52C94.4533 29.8827 93.024 30.064 91.36 30.064C89.888 30.064 88.3947 29.712 86.88 29.008C85.3867 28.304 84.2347 27.4507 83.424 26.448C82.9973 25.8293 82.5813 24.944 82.176 23.792C81.792 22.6187 81.6 21.6693 81.6 20.944C81.6 19.088 81.8773 17.328 82.432 15.664C83.008 13.9787 83.8613 12.6347 84.992 11.632C85.7387 10.9493 86.816 10.4373 88.224 10.096C89.632 9.75467 90.9227 9.584 92.096 9.584C93.5253 9.584 94.6453 9.78667 95.456 10.192C96.288 10.576 97.1093 11.2587 97.92 12.24ZM114.931 19.728C115.101 20.0267 115.24 20.464 115.347 21.04C115.453 21.5947 115.507 22.096 115.507 22.544C115.507 23.376 115.325 24.56 114.963 26.096C113.491 28.784 111.315 30.128 108.435 30.128C107.368 30.128 106.28 29.776 105.171 29.072C104.061 28.368 103.293 27.5573 102.867 26.64C102.291 24.8053 102.003 23.6427 102.003 23.152C102.003 22.2987 102.184 21.392 102.547 20.432C102.931 19.472 103.411 18.64 103.987 17.936C104.349 17.4453 105 17.0293 105.939 16.688C106.877 16.3253 107.731 16.144 108.499 16.144C109.992 16.144 111.261 16.432 112.307 17.008C113.352 17.5627 114.227 18.4693 114.931 19.728ZM112.147 24.88C112.253 24.6027 112.307 23.888 112.307 22.736C112.307 22.1173 112.189 21.5093 111.955 20.912C111.741 20.3147 111.421 19.8027 110.995 19.376C110.952 19.3333 110.835 19.2693 110.643 19.184C110.451 19.0773 110.184 18.9813 109.843 18.896C109.523 18.7893 109.149 18.736 108.723 18.736C107.528 18.736 106.653 19.216 106.099 20.176C105.544 21.136 105.266 22.224 105.266 23.44C105.266 23.6533 105.32 24.0587 105.427 24.656C105.555 25.2533 105.661 25.6267 105.747 25.776C105.811 25.9253 105.971 26.1387 106.227 26.416C106.504 26.672 106.835 26.9067 107.219 27.12C107.624 27.312 108.04 27.408 108.467 27.408C109.427 27.408 110.195 27.184 110.771 26.736C111.347 26.2667 111.805 25.648 112.147 24.88ZM129.424 19.056C128.976 19.824 128.368 20.6133 127.6 21.424C126.832 22.2347 125.851 23.1947 124.656 24.304C123.526 25.3707 122.896 25.9787 122.768 26.128L121.68 27.12C122.107 27.2053 122.907 27.248 124.08 27.248C124.55 27.248 125.232 27.1627 126.128 26.992C126.982 26.8213 127.611 26.736 128.016 26.736C128.358 26.736 128.742 26.7893 129.168 26.896C129.616 27.0027 130.032 27.1627 130.416 27.376C130.608 27.4613 130.768 27.632 130.896 27.888C131.024 28.1227 131.088 28.3467 131.088 28.56C131.088 28.8373 130.992 29.1467 130.8 29.488C130.608 29.8293 130.384 30 130.128 30C129.894 30 129.584 29.9573 129.2 29.872C128.624 29.7653 128.219 29.712 127.984 29.712C127.238 29.712 126.246 29.7653 125.008 29.872C123.302 30 122.043 30.064 121.232 30.064C120.208 30.064 119.398 29.936 118.8 29.68C118.224 29.424 117.936 28.944 117.936 28.24C117.936 27.7067 118.203 27.0987 118.736 26.416C119.27 25.712 119.92 24.976 120.688 24.208L121.136 23.728C121.478 23.3867 122.054 22.8747 122.864 22.192C123.675 21.488 124.294 20.9333 124.72 20.528C125.147 20.1013 125.499 19.6533 125.776 19.184L120.656 19.216C119.824 19.216 119.206 19.12 118.8 18.928C118.416 18.736 118.224 18.3733 118.224 17.84C118.224 17.5413 118.331 17.264 118.544 17.008C118.758 16.7307 119.035 16.56 119.376 16.496C120.144 16.3893 121.712 16.336 124.08 16.336C126.448 16.336 128.08 16.4533 128.976 16.688C129.211 16.7733 129.392 16.9333 129.52 17.168C129.67 17.3813 129.744 17.6053 129.744 17.84C129.744 18.224 129.638 18.6293 129.424 19.056ZM136.684 36.528C135.511 36.528 134.657 36.3147 134.124 35.888C133.612 35.4827 133.356 35.0347 133.356 34.544C133.356 33.7973 133.708 33.424 134.412 33.424C134.625 33.424 134.903 33.488 135.244 33.616C135.585 33.7653 135.905 33.84 136.204 33.84C136.673 33.84 137.057 33.5307 137.356 32.912C137.655 32.2933 137.953 31.2907 138.252 29.904C137.591 29.136 136.78 27.92 135.82 26.256C134.881 24.592 134.071 22.96 133.388 21.36C132.705 19.7387 132.364 18.5867 132.364 17.904C132.364 17.3707 132.545 16.976 132.908 16.72C133.292 16.464 133.729 16.336 134.22 16.336C134.604 16.336 134.903 16.4107 135.116 16.56C135.329 16.688 135.479 16.9333 135.564 17.296C136.076 19.1093 136.62 20.6987 137.196 22.064C137.793 23.4293 138.551 24.912 139.468 26.512C139.831 25.68 140.311 24.2613 140.908 22.256C141.569 20.016 142.124 18.4267 142.572 17.488C142.764 17.104 142.999 16.7947 143.276 16.56C143.575 16.3253 143.905 16.208 144.268 16.208C144.631 16.208 145.015 16.3467 145.42 16.624C145.847 16.88 146.06 17.1893 146.06 17.552C146.06 17.7653 145.985 18.0213 145.836 18.32C145.004 20.24 144.268 22.0533 143.628 23.76C143.009 25.4453 142.412 27.3013 141.836 29.328C141.495 30.4587 141.132 31.536 140.748 32.56C140.385 33.584 140.129 34.2133 139.98 34.448C139.553 35.0453 139.073 35.536 138.54 35.92C138.007 36.3253 137.388 36.528 136.684 36.528ZM96.416 56.544C96.3947 56.2027 96.384 55.6907 96.384 55.008V53.792C96.384 52.9813 96.3627 52.3733 96.32 51.968C96.2773 51.6267 96.256 50.7413 96.256 49.312C96.256 48.8 96.4053 48.4053 96.704 48.128C97.024 47.8293 97.4507 47.68 97.984 47.68C98.6667 47.68 99.1253 47.8293 99.36 48.128C99.5947 48.4267 99.712 48.9173 99.712 49.6V50.816L99.68 54.336C99.6587 55.0187 99.648 56.0427 99.648 57.408L99.68 60.032C99.7013 60.4373 99.712 61.0027 99.712 61.728C99.712 62.304 99.7333 63.1253 99.776 64.192C99.8187 65.1733 99.84 65.9093 99.84 66.4C99.84 66.8053 99.7227 67.1787 99.488 67.52C99.2747 67.8613 98.976 68.032 98.592 68.032C97.0987 68.032 96.352 67.5307 96.352 66.528C96.352 65.9733 96.3733 65.3547 96.416 64.672C96.4587 64.1813 96.48 63.4347 96.48 62.432C96.48 61.728 96.4587 60.7147 96.416 59.392C95.4133 59.4773 93.6853 59.52 91.232 59.52C89.696 59.52 88.5013 59.52 87.648 59.52C86.7947 59.4987 86.176 59.4453 85.792 59.36L85.76 63.04C85.76 63.2747 85.8133 63.904 85.92 64.928C86.0267 65.6107 86.08 66.208 86.08 66.72C86.08 67.04 85.888 67.3493 85.504 67.648C85.1413 67.9253 84.8 68.064 84.48 68.064C83.712 68.064 83.1893 67.8827 82.912 67.52C82.6347 67.136 82.496 66.56 82.496 65.792L82.464 63.264C82.4427 62.9653 82.432 62.5493 82.432 62.016C82.432 61.2267 82.4107 60.1493 82.368 58.784C82.3253 57.5467 82.304 56.6507 82.304 56.096C82.304 55.264 82.3253 54.1013 82.368 52.608C82.4107 51.2 82.432 50.1547 82.432 49.472C82.432 48.7893 82.6027 48.3307 82.944 48.096C83.2853 47.8613 83.6693 47.744 84.096 47.744C85.2907 47.744 85.888 48.1387 85.888 48.928C85.888 50.336 85.856 51.68 85.792 52.96C85.7493 54.5813 85.728 55.7653 85.728 56.512C86.3467 56.6613 86.9973 56.7573 87.68 56.8C88.3627 56.8427 89.3227 56.864 90.56 56.864C93.0773 56.864 95.0293 56.7573 96.416 56.544ZM116.524 57.728C116.695 58.0267 116.834 58.464 116.94 59.04C117.047 59.5947 117.1 60.096 117.1 60.544C117.1 61.376 116.919 62.56 116.556 64.096C115.084 66.784 112.908 68.128 110.028 68.128C108.962 68.128 107.874 67.776 106.764 67.072C105.655 66.368 104.887 65.5573 104.46 64.64C103.884 62.8053 103.596 61.6427 103.596 61.152C103.596 60.2987 103.778 59.392 104.14 58.432C104.524 57.472 105.004 56.64 105.58 55.936C105.943 55.4453 106.594 55.0293 107.532 54.688C108.471 54.3253 109.324 54.144 110.092 54.144C111.586 54.144 112.855 54.432 113.9 55.008C114.946 55.5627 115.82 56.4693 116.524 57.728ZM113.74 62.88C113.847 62.6027 113.9 61.888 113.9 60.736C113.9 60.1173 113.783 59.5093 113.548 58.912C113.335 58.3147 113.015 57.8027 112.588 57.376C112.546 57.3333 112.428 57.2693 112.236 57.184C112.044 57.0773 111.778 56.9813 111.436 56.896C111.116 56.7893 110.743 56.736 110.316 56.736C109.122 56.736 108.247 57.216 107.692 58.176C107.138 59.136 106.86 60.224 106.86 61.44C106.86 61.6533 106.914 62.0587 107.02 62.656C107.148 63.2533 107.255 63.6267 107.34 63.776C107.404 63.9253 107.564 64.1387 107.82 64.416C108.098 64.672 108.428 64.9067 108.812 65.12C109.218 65.312 109.634 65.408 110.06 65.408C111.02 65.408 111.788 65.184 112.364 64.736C112.94 64.2667 113.399 63.648 113.74 62.88ZM140.419 66.88C140.099 66.2827 139.897 65.6213 139.811 64.896C139.726 64.1493 139.683 63.1253 139.683 61.824C139.683 60.5867 139.513 59.5093 139.171 58.592C138.83 57.6747 138.126 57.216 137.059 57.216C136.654 57.216 136.249 57.344 135.843 57.6C135.459 57.8347 135.171 58.1333 134.979 58.496C134.681 59.072 134.478 59.7013 134.371 60.384C134.265 61.0453 134.211 61.8133 134.211 62.688C134.211 63.2427 134.243 63.808 134.307 64.384C134.307 64.5547 134.318 64.832 134.339 65.216C134.382 65.5787 134.403 65.9093 134.403 66.208C134.403 67.488 133.955 68.128 133.059 68.128C131.886 68.128 131.267 67.5093 131.203 66.272C131.203 65.3973 131.214 64.928 131.235 64.864V63.488C131.235 62.72 131.203 61.9733 131.139 61.248C131.075 60.5227 131.001 59.9787 130.915 59.616C130.723 58.912 130.467 58.368 130.147 57.984C129.849 57.6 129.369 57.408 128.707 57.408C127.769 57.408 127.011 57.8133 126.435 58.624C126.03 59.264 125.763 60.0427 125.635 60.96C125.507 62.1333 125.411 63.0613 125.347 63.744C125.305 64.4053 125.283 65.1733 125.283 66.048C125.283 66.6667 125.177 67.168 124.963 67.552C124.771 67.936 124.398 68.128 123.843 68.128C123.438 68.128 123.011 68.0213 122.563 67.808C122.137 67.5733 121.923 67.264 121.923 66.88C121.923 66.4747 121.966 66.0693 122.051 65.664C122.243 64.448 122.339 62.272 122.339 59.136C122.339 58.624 122.211 58.1333 121.955 57.664C121.721 57.1733 121.433 56.928 121.091 56.928C121.006 56.928 120.846 56.9707 120.611 57.056C120.398 57.1413 120.238 57.184 120.131 57.184C119.854 57.184 119.598 57.056 119.363 56.8C119.15 56.544 119.043 56.3307 119.043 56.16C119.043 55.6267 119.299 55.1787 119.811 54.816C120.345 54.432 120.899 54.24 121.475 54.24C122.265 54.24 122.937 54.4853 123.491 54.976C124.046 55.4667 124.473 56.1493 124.771 57.024C125.262 56.1707 125.923 55.488 126.755 54.976C127.587 54.4427 128.515 54.176 129.539 54.176C130.179 54.176 130.691 54.2613 131.075 54.432C131.481 54.5813 131.811 54.8053 132.067 55.104C132.323 55.3813 132.654 55.808 133.059 56.384C133.593 55.7013 134.275 55.168 135.107 54.784C135.961 54.4 136.835 54.208 137.731 54.208C138.798 54.208 139.758 54.6453 140.611 55.52C141.465 56.3733 142.041 57.3653 142.339 58.496C142.489 59.072 142.563 60.1813 142.563 61.824L142.691 63.68C142.798 64.7893 143.161 65.4613 143.779 65.696C144.505 65.9093 144.867 66.1333 144.867 66.368C144.867 66.88 144.739 67.2533 144.483 67.488C144.291 67.616 144.025 67.7547 143.683 67.904C143.342 68.0533 143.075 68.128 142.883 68.128C141.731 68.128 140.91 67.712 140.419 66.88ZM146.814 60.672C146.814 59.3707 147.102 58.2933 147.678 57.44C148.254 56.5653 149.054 55.744 150.078 54.976C150.376 54.7627 150.878 54.5813 151.582 54.432C152.286 54.2613 152.904 54.176 153.438 54.176C154.078 54.176 154.75 54.3147 155.454 54.592C156.179 54.848 156.766 55.1467 157.214 55.488C158.003 56.064 158.547 56.736 158.846 57.504C159.144 58.2507 159.294 59.1467 159.294 60.192C159.294 60.64 159.038 61.0773 158.526 61.504C158.035 61.9093 157.502 62.112 156.926 62.112L155.71 62.08C155.091 62.08 154.206 62.1013 153.054 62.144L152.382 62.176C151.912 62.2187 151.56 62.24 151.326 62.24C150.984 62.24 150.515 62.1973 149.918 62.112C150.003 63.1147 150.376 63.904 151.038 64.48C151.699 65.0347 152.414 65.312 153.182 65.312C154.526 65.312 155.464 65.0453 155.998 64.512C156.446 64.192 156.744 63.9893 156.894 63.904C157.043 63.8187 157.278 63.776 157.598 63.776C157.939 63.776 158.238 63.936 158.494 64.256C158.75 64.576 158.878 64.896 158.878 65.216C158.878 65.5787 158.654 65.952 158.206 66.336C157.779 66.6987 157.192 67.0827 156.446 67.488C156.04 67.6587 155.486 67.808 154.782 67.936C154.078 68.064 153.491 68.128 153.022 68.128C152.275 68.128 151.443 67.9147 150.526 67.488C149.608 67.04 148.926 66.5493 148.478 66.016C148.03 65.4827 147.635 64.7253 147.294 63.744C146.974 62.7627 146.814 61.7387 146.814 60.672ZM153.182 59.808C154.696 59.808 155.806 59.7547 156.51 59.648C156.467 59.0293 156.275 58.528 155.934 58.144C155.592 57.7387 155.123 57.3973 154.526 57.12C154.334 57.0347 154.163 56.9707 154.014 56.928C153.864 56.8853 153.694 56.864 153.502 56.864C152.52 56.864 151.688 57.1307 151.006 57.664C150.344 58.1973 149.95 58.88 149.822 59.712C150.888 59.776 152.008 59.808 153.182 59.808ZM165.809 74.528C164.636 74.528 163.782 74.3147 163.249 73.888C162.737 73.4827 162.481 73.0347 162.481 72.544C162.481 71.7973 162.833 71.424 163.537 71.424C163.75 71.424 164.028 71.488 164.369 71.616C164.71 71.7653 165.03 71.84 165.329 71.84C165.798 71.84 166.182 71.5307 166.481 70.912C166.78 70.2933 167.078 69.2907 167.377 67.904C166.716 67.136 165.905 65.92 164.945 64.256C164.006 62.592 163.196 60.96 162.513 59.36C161.83 57.7387 161.489 56.5867 161.489 55.904C161.489 55.3707 161.67 54.976 162.033 54.72C162.417 54.464 162.854 54.336 163.345 54.336C163.729 54.336 164.028 54.4107 164.241 54.56C164.454 54.688 164.604 54.9333 164.689 55.296C165.201 57.1093 165.745 58.6987 166.321 60.064C166.918 61.4293 167.676 62.912 168.593 64.512C168.956 63.68 169.436 62.2613 170.033 60.256C170.694 58.016 171.249 56.4267 171.697 55.488C171.889 55.104 172.124 54.7947 172.401 54.56C172.7 54.3253 173.03 54.208 173.393 54.208C173.756 54.208 174.14 54.3467 174.545 54.624C174.972 54.88 175.185 55.1893 175.185 55.552C175.185 55.7653 175.11 56.0213 174.961 56.32C174.129 58.24 173.393 60.0533 172.753 61.76C172.134 63.4453 171.537 65.3013 170.961 67.328C170.62 68.4587 170.257 69.536 169.873 70.56C169.51 71.584 169.254 72.2133 169.105 72.448C168.678 73.0453 168.198 73.536 167.665 73.92C167.132 74.3253 166.513 74.528 165.809 74.528Z" fill="#FBAF7E"/>
<defs>
<filter id="filter0_d_172_381" x="11" y="20" width="51" height="43" filterUnits="userSpaceOnUse" color-interpolation-filters="sRGB">
<feFlood flood-opacity="0" result="BackgroundImageFix"/>
<feColorMatrix in="SourceAlpha" type="matrix" values="0 0 0 0 0 0 0 0 0 0 0 0 0 0 0 0 0 0 127 0" result="hardAlpha"/>
<feOffset dx="1" dy="1"/>
<feComposite in2="hardAlpha" operator="out"/>
<feColorMatrix type="matrix" values="0 0 0 0 0 0 0 0 0 0 0 0 0 0 0 0 0 0 0.25 0"/>
<feBlend mode="normal" in2="BackgroundImageFix" result="effect1_dropShadow_172_381"/>
<feBlend mode="normal" in="SourceGraphic" in2="effect1_dropShadow_172_381" result="shape"/>
</filter>
</defs>
</svg>
